<svg width="96" height="96" xmlns="http://www.w3.org/2000/svg" xmlns:xlink="http://www.w3.org/1999/xlink" xml:space="preserve" overflow="hidden"><g transform="translate(-267 -348)"><path d="M325.2 374 319.2 380 296.7 380 290.7 374 325.2 374ZM330.8 374 339.3 374 333.3 380 324.8 380 330.8 374ZM315 390C313.3 390 312 388.7 312 387 312 385.3 313.3 384 315 384 316.7 384 318 385.3 318 387 318 388.7 316.7 390 315 390ZM348.1 370.9C348.4 370.6 348.2 370 347.7 370L334.7 370 339.3 365.4C340.1 364.6 340.1 363.4 339.3 362.6 338.5 361.8 337.3 361.8 336.5 362.6L329.2 370 282.2 370C281.8 370 281.5 370.5 281.8 370.9L313 402 313 422C313 423 311.7 423.8 310.1 424.3 308.6 424.5 307.2 424.7 306.1 425L306 425C304.1 425.5 303 426.2 303 427 303 428.7 308.4 430 315 430 321.6 430 327 428.7 327 427 327 426.2 325.8 425.5 324 425 322.8 424.7 321.5 424.4 319.9 424.3 318.3 423.8 317 423 317 422L317 402 348.1 370.9Z" fill="#D82E2E"/></g></svg>