<svg width="96" height="96" xmlns="http://www.w3.org/2000/svg" xmlns:xlink="http://www.w3.org/1999/xlink" xml:space="preserve" overflow="hidden"><g transform="translate(-481 -117)"><path d="M552 161C548.1 161 545 157.9 545 154 545 150.1 548.1 147 552 147 555.9 147 559 150.1 559 154 559 157.9 555.9 161 552 161ZM563 154C563 147.9 558.1 143 552 143 545.9 143 541 147.9 541 154 541 159 544.4 163.3 549 164.6L549 188C549 196.3 542.3 203 534 203 525.7 203 519 196.3 519 188L519 177.8C529.2 176.3 537 167.6 537 157 537 155.5 536.2 154.2 535 153.6L535 129C535 126 532.7 123.5 529.8 123.1 529.4 121.9 528.3 121 527 121L526 121C523.8 121 522 122.8 522 125 522 127.2 523.8 129 526 129L527 129C528.2 129 529.3 128.2 529.8 127.2 530.5 127.5 531 128.2 531 129L531 153.6C529.8 154.3 529 155.6 529 157 529 164.2 523.2 170 516 170 508.8 170 503 164.2 503 157 503 155.5 502.2 154.2 501 153.6L501 129C501 128.2 501.5 127.5 502.2 127.2 502.7 128.3 503.7 129 505 129L506 129C508.2 129 510 127.2 510 125 510 122.8 508.2 121 506 121L505 121C503.7 121 502.6 121.9 502.2 123.1 499.3 123.5 497 126 497 129L497 153.6C495.8 154.3 495 155.6 495 157 495 167.6 502.8 176.3 513 177.8L513 188C513 199.6 522.4 209 534 209 545.6 209 555 199.6 555 188L555 164.6C559.6 163.3 563 159 563 154Z" fill="#D82E2E"/><path d="M557 154C557 156.761 554.761 159 552 159 549.239 159 547 156.761 547 154 547 151.239 549.239 149 552 149 554.761 149 557 151.239 557 154Z" fill="#D82E2E"/></g></svg>