<svg width="96" height="96" xmlns="http://www.w3.org/2000/svg" xmlns:xlink="http://www.w3.org/1999/xlink" xml:space="preserve" overflow="hidden"><g transform="translate(-655 -375)"><path d="M732 409.8C723 400 713.3 406.7 705.9 408.4 705.7 406 705.1 403.8 704.4 401.7 707.5 401.4 712.1 400.4 715.3 397.1 720.5 391.9 720 383.1 720 383.1 720 383.1 711.1 382.6 706 387.8 703.6 390.2 702.4 393.4 701.8 396.2 697.4 388.8 691 384.9 690.6 384.6L687.5 389.7C687.6 389.8 698.4 396.5 699.9 408.3 692.6 406.5 682.8 400 674 409.7 664.3 420.4 672.6 475.2 703.1 460.1 733.5 475.3 741.7 420.5 732 409.8Z" fill="#D82E2E"/></g></svg>