<svg width="96" height="96" xmlns="http://www.w3.org/2000/svg" xmlns:xlink="http://www.w3.org/1999/xlink" xml:space="preserve" overflow="hidden"><g transform="translate(-433 -439)"><path d="M517.22 451 516.78 451C515.773 451.027 514.978 451.863 515 452.87L515 459.13C514.978 460.137 515.773 460.973 516.78 461L517.22 461C518.227 460.973 519.022 460.137 519 459.13L519 452.87C519.022 451.863 518.227 451.027 517.22 451Z" fill="#D82E2E"/><path d="M445.22 451 444.78 451C443.773 451.027 442.978 451.863 443 452.87L443 459.13C442.978 460.137 443.773 460.973 444.78 461L445.22 461C446.227 460.973 447.022 460.137 447 459.13L447 452.87C447.022 451.863 446.227 451.027 445.22 451Z" fill="#D82E2E"/><path d="M520 454 520 458C521.105 458 522 457.105 522 456 522 454.895 521.105 454 520 454Z" fill="#D82E2E"/><path d="M442 458 442 454C440.895 454 440 454.895 440 456 440 457.105 440.895 458 442 458Z" fill="#D82E2E"/><path d="M512.22 448 511.78 448C510.71 448.116 509.924 449.057 510 450.13L510 454 452 454 452 450.13C452.076 449.057 451.29 448.116 450.22 448L449.78 448C448.71 448.116 447.924 449.057 448 450.13L448 461.87C447.924 462.943 448.71 463.884 449.78 464L450.22 464C451.29 463.884 452.076 462.943 452 461.87L452 458 457 458 457 473C457.005 474.424 457.767 475.738 459 476.45L473 484.7 473 494.47 458.83 503.64C457.689 504.377 457 505.642 457 507L457 526 465 526 465 509.18 473 504 489 504 497 509.18 497 526 505 526 505 507C505 505.642 504.311 504.377 503.17 503.64L489 494.47 489 484.7 503 476.45C504.233 475.738 504.995 474.424 505 473L505 458 510 458 510 461.87C509.924 462.943 510.71 463.884 511.78 464L512.22 464C513.29 463.884 514.076 462.943 514 461.87L514 450.13C514.076 449.057 513.29 448.116 512.22 448ZM497 470.71 484.61 478 477.39 478 465 470.71 465 458 497 458Z" fill="#D82E2E"/><path d="M489 467C489 471.418 485.418 475 481 475 476.582 475 473 471.418 473 467 473 462.582 476.582 459 481 459 485.418 459 489 462.582 489 467Z" fill="#D82E2E"/></g></svg>