<svg width="96" height="96" xmlns="http://www.w3.org/2000/svg" xmlns:xlink="http://www.w3.org/1999/xlink" xml:space="preserve" overflow="hidden"><g transform="translate(-592 -134)"><path d="M659.8 169 656.4 165.6 653.6 168.4 657 171.8 653.8 175 650.4 171.6 647.6 174.4 651 177.8 647.8 181 644.4 177.6 641.6 180.4 645 183.8 641.9 186.9 635.1 180.1 656 159.2 662.8 166 659.8 169ZM679.1 154.9 667.1 142.9C665.9 141.7 664 141.7 662.9 142.9 661.7 144.1 661.7 146 662.9 147.1L665.4 149.6 660.1 154.9 656 150.8 654.1 148.9C652.9 147.7 651 147.7 649.9 148.9 648.7 150.1 648.7 152 649.9 153.1L651.8 155 625.4 181.4C623.4 183.4 622.2 186.1 622.2 189 622.2 190.1 622.4 191.2 622.7 192.3L617.5 197.5C616.1 198.9 615.7 201 616.4 202.8L600.6 218.6C599.8 219.4 599.8 220.6 600.6 221.4 601 221.8 601.5 222 602 222 602.5 222 603 221.8 603.4 221.4L619.2 205.6C621 206.3 623.1 205.9 624.5 204.5L629.7 199.3C630.8 199.6 631.9 199.8 633 199.8 635.8 199.8 638.5 198.8 640.6 196.6L667 170.2 668.9 172.1C669.5 172.7 670.3 173 671 173 671.7 173 672.5 172.7 673.1 172.1 674.3 170.9 674.3 169 673.1 167.9L671.2 166 667.1 161.9 672.4 156.6 674.9 159.1C675.5 159.7 676.3 160 677 160 677.7 160 678.5 159.7 679.1 159.1 680.3 157.9 680.3 156.1 679.1 154.9Z" fill="#D82E2E"/></g></svg>