<svg width="96" height="96" xmlns="http://www.w3.org/2000/svg" xmlns:xlink="http://www.w3.org/1999/xlink" xml:space="preserve" overflow="hidden"><g transform="translate(-720 -198)"><path d="M781.368 250.88 788.487 258 790.679 258 790.679 250.88 785.708 250.88 781.368 250.88Z" fill="#D82E2E"/><path d="M759.876 229.388 772.047 241.559C772.234 241.447 772.415 241.324 772.588 241.191 773.828 242.737 775.706 243.632 777.688 243.623L784.213 243.623C785.836 243.608 787.163 244.911 787.178 246.534 787.178 246.553 787.178 246.571 787.178 246.59L787.178 249.29 790.737 249.29 790.678 246.59C790.69 246.332 790.67 246.073 790.619 245.819L790.619 245.759C790.619 245.581 790.559 245.344 790.559 245.166 789.873 241.515 786.682 238.872 782.967 238.877 782.002 238.895 781.205 238.127 781.187 237.162 781.187 237.14 781.187 237.118 781.187 237.097L781.187 236.5C781.178 233.228 778.528 230.577 775.256 230.567 774.291 230.585 773.494 229.817 773.476 228.852 773.476 228.83 773.476 228.809 773.476 228.787 773.634 225.02 770.708 221.838 766.941 221.68 763.174 221.522 759.992 224.447 759.834 228.215 759.826 228.405 759.826 228.596 759.834 228.787 759.835 228.994 759.86 229.19 759.876 229.388Z" fill="#D82E2E"/><path d="M764.398 250.88 745.022 250.88 745.022 258 771.518 258 764.398 250.88Z" fill="#D82E2E"/><path d="M768 208C747.007 207.994 729.984 225.007 729.978 246 729.972 266.993 746.985 284.016 767.978 284.022 788.971 284.028 805.994 267.015 806 246.022 806 246.018 806 246.015 806 246.011 806.012 225.03 789.012 208.012 768.031 208 768.021 208 768.01 208 768 208ZM798 246.011C798.006 252.583 795.843 258.974 791.846 264.191L749.82 222.161C762.976 212.109 781.79 214.625 791.843 227.781 795.842 233.016 798.006 239.423 798 246.011ZM738 246.011C737.995 239.433 740.161 233.038 744.164 227.818L786.2 269.851C773.052 279.914 754.236 277.414 744.173 264.266 740.162 259.026 737.993 252.609 738 246.011Z" fill="#D82E2E"/></g></svg>