<svg width="96" height="96" xmlns="http://www.w3.org/2000/svg" xmlns:xlink="http://www.w3.org/1999/xlink" xml:space="preserve" overflow="hidden"><g transform="translate(-103 -117)"><path d="M159 167.5C159 169.7 157.2 171.5 155 171.5L151 171.5C148.8 171.5 147 169.7 147 167.5L147 165.5 113 165.5 113 193.5C113 195.7 114.8 197.5 117 197.5L189 197.5C191.2 197.5 193 195.7 193 193.5L193 165.5 159 165.5 159 167.5Z" fill="#D82E2E"/><path d="M189 141.5 169 141.5 169 135C169 131.1 165.9 128 162 128L144 128C140.1 128 137 131.1 137 135L137 141.5 117 141.5C114.8 141.5 113 143.3 113 145.5L113 161.5 147 161.5 147 159.5 159 159.5 159 161.5 193 161.5 193 145.5C193 143.3 191.2 141.5 189 141.5M143 141.5 143 135C143 134.4 143.4 134 144 134L162 134C162.6 134 163 134.4 163 135L163 141.5 143 141.5Z" fill="#D82E2E"/></g></svg>